<svg xmlns="http://www.w3.org/2000/svg" width="500" height="500" viewBox="0 0 500 500" version="1.1"><path d="M 209.375 167.644 C 206.910 172.665, 206.500 174.683, 206.500 181.796 L 206.500 190.091 202.500 189.426 C 195.942 188.336, 188.499 185.162, 183.437 181.296 C 179.172 178.039, 178.739 177.894, 179.263 179.896 C 179.826 182.049, 179.759 182.072, 177.423 180.542 C 175.246 179.115, 175 179.112, 175 180.508 C 175 183.329, 179.113 194.385, 182.728 201.284 C 186.704 208.870, 195.023 217.938, 199.834 219.931 C 203.467 221.436, 203.855 222.594, 201.028 223.491 C 197.806 224.514, 186.768 235.954, 187.404 237.611 C 187.714 238.419, 187.471 239.874, 186.864 240.845 C 185.395 243.199, 188.467 249.206, 193.665 254.141 C 199.770 259.938, 201.030 259.874, 204.312 253.604 C 208.724 245.176, 210.555 243.937, 220.173 242.878 C 230.647 241.726, 236.267 239.855, 242.083 235.586 C 248.605 230.800, 250.267 226.685, 251.018 213.461 C 251.564 203.859, 252.022 201.730, 254.535 197.112 C 256.125 194.192, 259.509 189.930, 262.055 187.640 L 266.686 183.477 263.078 183.821 C 260.126 184.103, 258.861 183.583, 256.124 180.968 C 253.049 178.030, 252.352 177.806, 247.512 178.207 C 241.440 178.711, 237.181 181.552, 234.331 187 C 233.324 188.925, 232.475 190.600, 232.444 190.723 C 232.413 190.845, 229.165 187.920, 225.225 184.223 C 218.304 177.727, 214.092 171.073, 214.007 166.500 C 213.912 161.424, 212.225 161.841, 209.375 167.644 M 210.028 168.750 C 208.555 171.881, 207.448 184.663, 208.340 188.220 C 208.828 190.164, 209.966 190.802, 214.717 191.796 C 217.898 192.462, 222.928 194.140, 225.895 195.525 C 228.863 196.910, 231.504 197.829, 231.765 197.568 C 232.027 197.307, 231.932 195.865, 231.555 194.364 C 230.917 191.821, 229.255 189.968, 219.630 181.070 C 216.990 178.630, 215.426 175.961, 214.210 171.822 C 213.269 168.621, 212.235 166.002, 211.911 166.001 C 211.586 166.001, 210.739 167.238, 210.028 168.750 M 213.044 182.086 L 213 187.672 219.127 189.376 C 222.497 190.313, 225.421 190.912, 225.625 190.708 C 225.830 190.504, 223.967 188.879, 221.486 187.097 C 219.005 185.315, 216.100 182.202, 215.032 180.179 L 213.088 176.500 213.044 182.086 M 254 182.500 C 255.292 183.875, 256.717 185, 257.168 185 C 257.618 185, 257.009 183.875, 255.813 182.500 C 254.618 181.125, 253.192 180, 252.645 180 C 252.099 180, 252.708 181.125, 254 182.500 M 177 183.260 C 177 184.910, 181.471 196.104, 184.101 201.038 C 189.003 210.236, 200.791 221, 205.960 221 C 208.284 221, 206.770 219.319, 203.324 218.073 C 195.661 215.302, 187.096 204.276, 182.107 190.761 C 180.666 186.857, 178.927 183.476, 178.244 183.248 C 177.560 183.020, 177 183.025, 177 183.260 M 249.206 210.572 C 248.921 220.343, 246.765 226.040, 241.521 230.874 C 236.450 235.549, 230.204 237.686, 218.849 238.633 C 210.075 239.365, 208.022 240.694, 203.346 248.672 C 201.543 251.749, 200.419 252.728, 199.187 252.293 C 196.691 251.410, 194.058 248.979, 190.854 244.600 C 188.718 241.681, 188 241.185, 188 242.627 C 188 243.688, 188.742 245.668, 189.649 247.027 C 192.155 250.783, 198.272 257.001, 199.453 256.992 C 200.029 256.988, 201.525 255.189, 202.779 252.995 C 204.032 250.800, 206.389 247.487, 208.018 245.632 C 210.789 242.476, 211.507 242.214, 219.210 241.542 C 233.859 240.264, 243.215 235.348, 247.443 226.707 C 249.808 221.872, 250.048 220.386, 249.747 212.406 C 249.426 203.885, 249.402 203.806, 249.206 210.572" stroke="none" fill="#8c52ff" fill-rule="evenodd"/><path d="M 178 177.667 C 178 178.583, 178.301 179.032, 178.669 178.664 C 179.037 178.297, 180.274 178.781, 181.419 179.741 C 182.935 181.012, 182.842 180.741, 181.076 178.743 C 178.240 175.534, 178 175.450, 178 177.667 M 174.079 179.250 C 174.122 180.488, 174.391 180.919, 174.676 180.208 C 175.097 179.160, 175.506 179.157, 176.847 180.191 C 177.994 181.076, 177.917 180.782, 176.595 179.233 C 174.222 176.452, 173.981 176.453, 174.079 179.250 M 212.272 182 C 212.272 184.475, 212.467 185.488, 212.706 184.250 C 212.944 183.012, 212.944 180.988, 212.706 179.750 C 212.467 178.512, 212.272 179.525, 212.272 182 M 254 182.500 C 255.292 183.875, 256.717 185, 257.168 185 C 257.618 185, 257.009 183.875, 255.813 182.500 C 254.618 181.125, 253.192 180, 252.645 180 C 252.099 180, 252.708 181.125, 254 182.500 M 260.762 183.707 C 262.006 183.946, 263.806 183.937, 264.762 183.687 C 265.718 183.437, 264.700 183.241, 262.500 183.252 C 260.300 183.263, 259.518 183.468, 260.762 183.707 M 260.453 189.250 L 256.500 193.500 260.750 189.547 C 264.702 185.871, 265.460 185, 264.703 185 C 264.540 185, 262.627 186.912, 260.453 189.250 M 248.804 212.250 C 248.613 216.787, 248.803 220.928, 249.228 221.450 C 249.653 221.972, 250 218.260, 250 213.200 C 250 208.140, 249.809 204, 249.576 204 C 249.343 204, 248.996 207.713, 248.804 212.250 M 187.859 207.259 C 188.475 207.875, 189.718 208.488, 190.621 208.621 C 191.832 208.798, 191.968 208.568, 191.141 207.741 C 190.525 207.125, 189.282 206.512, 188.379 206.379 C 187.168 206.202, 187.032 206.432, 187.859 207.259 M 251.310 215.500 C 251.315 218.800, 251.502 220.029, 251.725 218.232 C 251.947 216.435, 251.943 213.735, 251.715 212.232 C 251.486 210.729, 251.304 212.200, 251.310 215.500 M 191.859 212.259 C 192.475 212.875, 193.718 213.488, 194.621 213.621 C 195.832 213.798, 195.968 213.568, 195.141 212.741 C 194.525 212.125, 193.282 211.512, 192.379 211.379 C 191.168 211.202, 191.032 211.432, 191.859 212.259 M 213.750 241.706 C 214.988 241.944, 217.012 241.944, 218.250 241.706 C 219.488 241.467, 218.475 241.272, 216 241.272 C 213.525 241.272, 212.512 241.467, 213.750 241.706 M 209.009 243.489 C 208.329 244.308, 207.405 244.751, 206.956 244.473 C 206.506 244.195, 205.902 244.350, 205.613 244.817 C 204.589 246.473, 208.017 245.638, 209.651 243.833 C 210.563 242.825, 211.070 242, 210.777 242 C 210.485 242, 209.689 242.670, 209.009 243.489 M 215.250 243.689 C 216.213 243.941, 217.787 243.941, 218.750 243.689 C 219.713 243.438, 218.925 243.232, 217 243.232 C 215.075 243.232, 214.287 243.438, 215.250 243.689 M 194.453 252.750 C 196.627 255.088, 199.102 256.964, 199.953 256.921 C 201.296 256.853, 201.302 256.771, 200 256.300 C 199.175 256.002, 196.700 254.125, 194.500 252.129 L 190.500 248.500 194.453 252.750 M 193 254.500 C 194.866 256.425, 196.617 258, 196.892 258 C 197.167 258, 195.866 256.425, 194 254.500 C 192.134 252.575, 190.383 251, 190.108 251 C 189.833 251, 191.134 252.575, 193 254.500" stroke="none" fill="#8e57fc" fill-rule="evenodd"/><path d="M 0 250.002 L 0 500.004 250.250 499.752 L 500.500 499.500 500.752 249.750 L 501.004 0 250.502 0 L 0 0 0 250.002 M 0.492 250.500 C 0.492 388, 0.608 444.101, 0.750 375.170 C 0.892 306.238, 0.892 193.738, 0.750 125.170 C 0.608 56.601, 0.492 113, 0.492 250.500 M 210.221 164.750 C 207.125 169.195, 206 173.802, 206 182.028 L 206 189.758 201.250 188.750 C 194.065 187.225, 186.735 183.657, 181.961 179.360 L 177.673 175.500 178.418 178.500 L 179.163 181.500 176.581 179.076 C 173.323 176.016, 173.242 177.333, 176.115 186.645 C 180.585 201.130, 189.165 213.923, 198.259 219.664 L 202.142 222.115 198.321 224.937 C 186.826 233.426, 183.796 240.564, 188.372 248.372 C 191.448 253.621, 197.341 259, 200.014 259 C 201.274 259, 202.673 257.601, 203.986 255.028 C 205.100 252.843, 207.355 249.527, 208.995 247.658 C 211.698 244.580, 212.651 244.194, 219.144 243.555 C 231.961 242.291, 241.490 238.212, 247.242 231.525 C 250.107 228.195, 252.004 220.073, 251.846 211.818 C 251.660 202.106, 254.582 195.577, 262.445 188.141 L 267.880 183 262.975 183 C 259.123 183, 257.845 182.578, 257.019 181.035 C 256.441 179.955, 254.232 178.551, 252.112 177.915 C 245.381 175.899, 237.153 180.035, 233.330 187.357 C 231.869 190.154, 231.808 190.172, 230.425 188.197 C 229.648 187.087, 226.816 184.567, 224.133 182.597 C 219.057 178.871, 215.888 173.343, 214.475 165.750 C 213.644 161.281, 212.778 161.078, 210.221 164.750 M 209.576 172.057 C 207.966 177.476, 207.572 183.804, 208.604 187.651 C 209.054 189.327, 210.627 190.165, 215.712 191.443 C 219.304 192.345, 224.032 193.996, 226.219 195.111 C 230.701 197.398, 231.503 197.141, 230.637 193.691 C 230.044 191.327, 229.098 190.280, 219.864 181.765 C 216.638 178.791, 214.837 176.123, 213.945 172.995 C 212.049 166.346, 211.318 166.190, 209.576 172.057 M 212.656 177.455 C 211.586 180.243, 211.907 185.502, 213.250 187.179 C 213.938 188.037, 216.300 189.216, 218.500 189.799 C 220.700 190.381, 223.625 191.155, 225 191.518 C 226.969 192.037, 226.295 191.044, 221.822 186.839 C 218.699 183.902, 215.506 180.205, 214.727 178.623 C 213.550 176.231, 213.201 176.034, 212.656 177.455 M 178.510 186.484 C 179.656 191.781, 185.570 203.356, 189.924 208.824 C 193.880 213.792, 202.052 220.056, 204.446 219.956 C 205.026 219.931, 203.777 219.003, 201.672 217.892 C 195.637 214.708, 189.173 207.198, 184.917 198.427 C 182.763 193.987, 181 189.685, 181 188.868 C 181 188.051, 180.294 186.509, 179.432 185.441 C 177.941 183.595, 177.895 183.647, 178.510 186.484 M 246.433 225.431 C 244.017 230.187, 237.521 235.470, 232.225 236.986 C 230.176 237.572, 225.575 238.306, 222 238.616 C 212.068 239.479, 209.342 240.634, 206.163 245.330 C 202.433 250.840, 201.260 253.272, 204.151 249.500 C 210.038 241.821, 210.901 241.350, 220.173 240.772 C 229.376 240.198, 238.150 237.071, 242.844 232.692 C 245.368 230.338, 249.316 223.331, 248.808 222.107 C 248.639 221.697, 247.570 223.193, 246.433 225.431 M 188 242.688 C 188 245.066, 197.524 256, 199.596 256 C 200.250 256, 201.026 255.375, 201.319 254.610 C 201.674 253.685, 200.892 253.028, 198.977 252.645 C 197.095 252.269, 194.704 250.301, 192.051 246.945 C 189.823 244.127, 188 242.211, 188 242.688" stroke="none" fill="#fbfbfc" fill-rule="evenodd"/></svg>